REM DIRINDEX 1\5,1\2\6,1\2\7,1\3\8,1\3\9,1\4\10,1\4\11,1\4\12
REM DIRNAME folder01,folder02,folder03,folder04,folder05,folder06,folder07,folder08,folder09,folder10,folder11,folder12
TITLE ""
FILE "EJE_DB3000_5th_5C_06.mp3" MP3
  TRACK 01 AUDIO
    TITLE "0:"
    INDEX 01 00:00:00
  TRACK 02 AUDIO
    TITLE "10:cjc026_10323"
    INDEX 01 00:00:07
  TRACK 03 AUDIO
    TITLE "0:"
    INDEX 01 00:00:72
  TRACK 04 AUDIO
    TITLE "11:cjc026_10324"
    INDEX 01 00:01:24
  TRACK 05 AUDIO
    TITLE "0:"
    INDEX 01 00:02:28
  TRACK 06 AUDIO
    TITLE "12:cjc026_10325"
    INDEX 01 00:02:55
  TRACK 07 AUDIO
    TITLE "0:"
    INDEX 01 00:03:47
  TRACK 08 AUDIO
    TITLE "10:cjc026_10326"
    INDEX 01 00:03:72
  TRACK 09 AUDIO
    TITLE "0:"
    INDEX 01 00:04:72
  TRACK 10 AUDIO
    TITLE "11:cjc026_10327"
    INDEX 01 00:05:18
  TRACK 11 AUDIO
    TITLE "0:"
    INDEX 01 00:06:22
  TRACK 12 AUDIO
    TITLE "12:cjc026_10328"
    INDEX 01 00:06:45
  TRACK 13 AUDIO
    TITLE "0:"
    INDEX 01 00:07:45
  TRACK 14 AUDIO
    TITLE "10:cjc026_10329"
    INDEX 01 00:07:70
  TRACK 15 AUDIO
    TITLE "0:"
    INDEX 01 00:08:60
  TRACK 16 AUDIO
    TITLE "11:cjc026_10330"
    INDEX 01 00:09:12
  TRACK 17 AUDIO
    TITLE "0:"
    INDEX 01 00:10:12
  TRACK 18 AUDIO
    TITLE "12:cjc026_10331"
    INDEX 01 00:10:37
  TRACK 19 AUDIO
    TITLE "0:"
    INDEX 01 00:11:27
  TRACK 20 AUDIO
    TITLE "10:cjc026_10332"
    INDEX 01 00:11:52
  TRACK 21 AUDIO
    TITLE "0:"
    INDEX 01 00:12:34
  TRACK 22 AUDIO
    TITLE "11:cjc026_10333"
    INDEX 01 00:12:60
  TRACK 23 AUDIO
    TITLE "0:"
    INDEX 01 00:13:65
  TRACK 24 AUDIO
    TITLE "12:cjc026_10334"
    INDEX 01 00:14:15
  TRACK 25 AUDIO
    TITLE "0:"
    INDEX 01 00:14:72
  TRACK 26 AUDIO
    TITLE "10:cjc026_10335"
    INDEX 01 00:15:23
  TRACK 27 AUDIO
    TITLE "0:"
    INDEX 01 00:16:12
  TRACK 28 AUDIO
    TITLE "11:cjc026_10336"
    INDEX 01 00:16:38
  TRACK 29 AUDIO
    TITLE "0:"
    INDEX 01 00:17:63
  TRACK 30 AUDIO
    TITLE "12:cjc026_10337"
    INDEX 01 00:18:13
  TRACK 31 AUDIO
    TITLE "0:"
    INDEX 01 00:19:03
  TRACK 32 AUDIO
    TITLE "10:cjc026_10338"
    INDEX 01 00:19:28
  TRACK 33 AUDIO
    TITLE "0:"
    INDEX 01 00:20:18
  TRACK 34 AUDIO
    TITLE "11:cjc026_10339"
    INDEX 01 00:20:43
  TRACK 35 AUDIO
    TITLE "0:"
    INDEX 01 00:21:43
  TRACK 36 AUDIO
    TITLE "12:cjc026_10340"
    INDEX 01 00:21:70
  TRACK 37 AUDIO
    TITLE "0:"
    INDEX 01 00:22:58
  TRACK 38 AUDIO
    TITLE "10:cjc026_10341"
    INDEX 01 00:23:08
  TRACK 39 AUDIO
    TITLE "0:"
    INDEX 01 00:24:06
  TRACK 40 AUDIO
    TITLE "11:cjc026_10342"
    INDEX 01 00:24:31
  TRACK 41 AUDIO
    TITLE "0:"
    INDEX 01 00:25:39
  TRACK 42 AUDIO
    TITLE "12:cjc026_10343"
    INDEX 01 00:25:64
  TRACK 43 AUDIO
    TITLE "0:"
    INDEX 01 00:26:60
  TRACK 44 AUDIO
    TITLE "10:cjc026_10344"
    INDEX 01 00:27:12
  TRACK 45 AUDIO
    TITLE "0:"
    INDEX 01 00:28:15
  TRACK 46 AUDIO
    TITLE "11:cjc026_10345"
    INDEX 01 00:28:41
  TRACK 47 AUDIO
    TITLE "0:"
    INDEX 01 00:29:42
  TRACK 48 AUDIO
    TITLE "12:cjc026_10346"
    INDEX 01 00:29:68
  TRACK 49 AUDIO
    TITLE "0:"
    INDEX 01 00:30:69
  TRACK 50 AUDIO
    TITLE "10:cjc026_10347"
    INDEX 01 00:31:20
  TRACK 51 AUDIO
    TITLE "0:"
    INDEX 01 00:32:17
  TRACK 52 AUDIO
    TITLE "11:cjc026_10348"
    INDEX 01 00:32:41
  TRACK 53 AUDIO
    TITLE "0:"
    INDEX 01 00:33:32
  TRACK 54 AUDIO
    TITLE "12:cjc026_10349"
    INDEX 01 00:33:58
  TRACK 55 AUDIO
    TITLE "0:"
    INDEX 01 00:34:53
  TRACK 56 AUDIO
    TITLE "10:cjc026_10350"
    INDEX 01 00:35:06
  TRACK 57 AUDIO
    TITLE "0:"
    INDEX 01 00:35:70
  TRACK 58 AUDIO
    TITLE "11:cjc026_10351"
    INDEX 01 00:36:21
  TRACK 59 AUDIO
    TITLE "0:"
    INDEX 01 00:37:12
  TRACK 60 AUDIO
    TITLE "12:cjc026_10352"
    INDEX 01 00:37:38
  TRACK 61 AUDIO
    TITLE "0:"
    INDEX 01 00:38:30
  TRACK 62 AUDIO
    TITLE "10:cjc026_10353"
    INDEX 01 00:38:55
  TRACK 63 AUDIO
    TITLE "0:"
    INDEX 01 00:39:49
  TRACK 64 AUDIO
    TITLE "11:cjc026_10354"
    INDEX 01 00:39:74
  TRACK 65 AUDIO
    TITLE "0:"
    INDEX 01 00:40:66
  TRACK 66 AUDIO
    TITLE "12:cjc026_10355"
    INDEX 01 00:41:16
  TRACK 67 AUDIO
    TITLE "0:"
    INDEX 01 00:42:10
  TRACK 68 AUDIO
    TITLE "10:cjc026_10356"
    INDEX 01 00:42:33
  TRACK 69 AUDIO
    TITLE "0:"
    INDEX 01 00:43:19
  TRACK 70 AUDIO
    TITLE "11:cjc026_10357"
    INDEX 01 00:43:46
  TRACK 71 AUDIO
    TITLE "0:"
    INDEX 01 00:44:30
  TRACK 72 AUDIO
    TITLE "12:cjc026_10358"
    INDEX 01 00:44:56
  TRACK 73 AUDIO
    TITLE "0:"
    INDEX 01 00:45:41
  TRACK 74 AUDIO
    TITLE "10:cjc026_10359"
    INDEX 01 00:45:67
  TRACK 75 AUDIO
    TITLE "0:"
    INDEX 01 00:46:58
  TRACK 76 AUDIO
    TITLE "11:cjc026_10360"
    INDEX 01 00:47:09
  TRACK 77 AUDIO
    TITLE "0:"
    INDEX 01 00:47:70
  TRACK 78 AUDIO
    TITLE "12:cjc026_10361"
    INDEX 01 00:48:20
  TRACK 79 AUDIO
    TITLE "0:"
    INDEX 01 00:49:12
